<svg data-v-0dd9719b="" version="1.0" xmlns="http://www.w3.org/2000/svg" xmlns:xlink="http://www.w3.org/1999/xlink" width="100%" height="100%" viewBox="0 0 340.000000 250.000000" preserveAspectRatio="xMidYMid meet" color-interpolation-filters="sRGB" style="margin: auto;"> <rect data-v-0dd9719b="" x="0" y="0" width="100%" height="100%" fill="#fff" fill-opacity="1" class="background"></rect> <rect data-v-0dd9719b="" x="0" y="0" width="100%" height="100%" fill="url(#watermark)" fill-opacity="1" class="watermarklayer"></rect> <g data-v-0dd9719b="" fill="#333" class="icon-text-wrapper icon-svg-group iconsvg" transform="translate(48.159393310546875,90.71036529541016)"><g class="iconsvg-imagesvg" transform="translate(0,0)"><g><rect fill="#333" fill-opacity="0" stroke-width="2" x="0" y="0" width="60" height="68.57926620185164" class="image-rect"></rect> <svg x="0" y="0" width="60" height="68.57926620185164" filtersec="colorsb713755808" class="image-svg-svg primary" style="overflow: visible;"><svg xmlns="http://www.w3.org/2000/svg" viewBox="0 0 87.48999786376953 100"><path d="M43.73 48.5l5.75-3.32-23.2-13.39a11.24 11.24 0 0 1-8.28-.74c-2.77-1.6-2.77-4.18 0-5.78a11.06 11.06 0 0 1 10 0c2.24 1.29 2.67 3.25 1.27 4.79l23.2 13.39 9.89-5.71-23.19-13.39a11.24 11.24 0 0 1-8.29-.74c-2.77-1.6-2.77-4.18 0-5.78a11 11 0 0 1 10 0c2.24 1.3 2.67 3.25 1.28 4.79L65.37 36l9.89-5.71-23.2-13.38a11.31 11.31 0 0 1-8.3-.73c-2.77-1.6-2.76-4.2 0-5.79a11.08 11.08 0 0 1 10 0c2.24 1.29 2.66 3.25 1.26 4.79l23.2 13.39 7.49-4.32L43.73 0l-42 24.25z" fill="#0087ff"></path><path d="M42 51.5l-5.74-3.32V75a11.24 11.24 0 0 1 3.5 7.54c0 3.2-2.24 4.5-5 2.9a11.07 11.07 0 0 1-5-8.68c0-2.59 1.47-3.93 3.51-3.49V46.45l-9.89-5.71v26.79a11.25 11.25 0 0 1 3.51 7.54c0 3.2-2.24 4.5-5 2.9a11.07 11.07 0 0 1-5-8.68c0-2.58 1.48-3.93 3.51-3.49V39l-9.92-5.7v26.79A11.26 11.26 0 0 1 14 67.64c0 3.2-2.24 4.48-5 2.89a11.09 11.09 0 0 1-5-8.68c0-2.59 1.48-3.93 3.51-3.49V31.57L0 27.25v48.5L42 100z" fill="#2a3294"></path><path d="M45.46 51.5V100l5.75-3.32V67.89c-2 .44-3.51-.9-3.51-3.49a11.07 11.07 0 0 1 5-8.68c2.77-1.6 5-.3 5 2.9a11.25 11.25 0 0 1-3.51 7.54V95l9.89-5.71V60.45c-2 .44-3.51-.9-3.51-3.49a11.07 11.07 0 0 1 5-8.68c2.77-1.6 5-.3 5 2.9a11.25 11.25 0 0 1-3.51 7.54v28.79L77 81.8V53c-2 .44-3.52-.9-3.52-3.49a11.08 11.08 0 0 1 5-8.68c2.76-1.59 5-.31 5 2.89A11.27 11.27 0 0 1 80 51.28v28.79l7.49-4.32v-48.5z" fill="#ff006f"></path></svg></svg> <!----></g></g> <g transform="translate(67,5.428388595581055)"><g data-gra="path-name" fill-rule="" class="tp-name iconsvg-namesvg" transform="translate(0,0)"><g transform="scale(1)"><g><path d="M25.7-24.3L25.38-24.16 25.33-24.12 25.2-23.8Q25.29-23.27 26.1-22.93 26.91-22.59 27.88-22.36 28.84-22.14 29.68-21.94 30.51-21.73 30.69-21.46L30.69-21.46Q30.55-21.2 29.68-20.56 28.8-19.93 27.79-19.13 26.77-18.31 25.94-17.44 25.11-16.56 25.11-15.88L25.11-15.88Q25.11-15.71 25.38-15.64 25.65-15.57 26.01-15.57 26.37-15.57 26.68-15.59 27-15.62 27.13-15.62L27.13-15.62 27.45-15.75Q27.95-16.25 28.39-16.79 28.84-17.32 29.29-17.86L29.29-17.86 29.56-18Q29.74-17.91 30.51-17.41 31.27-16.92 31.99-16.36 32.71-15.79 33.12-15.32 33.52-14.85 33.07-14.85L33.07-14.85 25.33-14.85Q24.88-14.85 24.88-14.4L24.88-14.4 24.88-9.31Q24.88-9.04 25.18-9 25.47-8.96 25.65-8.96L25.65-8.96Q26.59-8.96 27.13-9.36 27.68-9.76 28.04-10.3 28.39-10.84 28.69-11.32 28.98-11.79 29.43-11.92L29.43-11.92Q29.61-11.88 30.26-11.41 30.91-10.93 31.61-10.33 32.31-9.72 32.85-9.16 33.39-8.59 33.39-8.46L33.39-8.46Q33.39-8.37 33.23-8.3 33.07-8.23 32.98-8.23L32.98-8.23 25.2-8.23Q24.75-8.23 24.75-7.79L24.75-7.79 24.75 1.48Q24.75 1.8 24.05 2 23.36 2.21 22.48 2.29 21.6 2.38 20.75 2.43 19.89 2.48 19.62 2.48L19.62 2.48Q19.21 2.48 19.21 2.07L19.21 2.07 19.21-14.4Q19.21-14.85 18.77-14.85L18.77-14.85Q18.5-14.85 17.46-14.83 16.43-14.8 15.28-14.8 14.13-14.8 13.16-14.83 12.2-14.85 12.11-14.94L12.11-14.94Q12.11-15.3 12.55-15.3L12.55-15.3 22.81-15.3Q23.49-15.3 23.87-16.18 24.25-17.05 24.41-18.18 24.57-19.3 24.59-20.41 24.61-21.51 24.61-22L24.61-22Q24.61-22.5 24.64-23.18 24.66-23.85 24.12-24.16L24.12-24.16Q24.03-24.21 23.96-24.23 23.89-24.25 23.8-24.3L23.8-24.3 10.48-24.3Q10.04-24.3 10.04-23.85L10.04-23.85 10.04 2.38Q10.04 2.79 9.36 3.08 8.69 3.38 7.81 3.55 6.93 3.73 6.1 3.82 5.26 3.92 4.95 3.92L4.95 3.92Q4.5 3.92 4.5 3.46L4.5 3.46Q4.5 1.3 4.48-0.79 4.46-2.88 4.41-5.04L4.41-5.04Q4.32-9.58 4.3-14.11 4.27-18.63 4.27-23.18L4.27-23.18Q4.27-24.21 4.23-25.2 4.18-26.19 4.18-27.22L4.18-27.22Q4.18-27.63 4.63-27.63L4.63-27.63Q5.17-27.63 5.92-27.31 6.66-27 7.45-26.59 8.23-26.19 9-25.79 9.76-25.38 10.39-25.24L10.39-25.24Q10.93-25.11 11.77-25.06 12.6-25.02 13.5-25.02 14.4-25.02 15.25-25.02 16.11-25.02 16.79-24.97L16.79-24.97Q16.92-24.97 17.32-24.93 17.73-24.88 18.16-24.88 18.59-24.88 18.9-24.93 19.21-24.97 19.21-25.2L19.21-25.2 19.21-37.39Q19.21-37.84 19.66-37.84L19.66-37.84Q22.63-37.84 25.56-37.3L25.56-37.3Q25.7-37.26 25.85-37.24 26.01-37.21 26.01-36.99L26.01-36.99Q26.01-36.81 25.74-36.52 25.47-36.23 25.33-36.13L25.33-36.13Q25.29-36.05 25.24-35.28 25.2-34.52 25.2-33.41 25.2-32.31 25.2-30.98 25.2-29.65 25.22-28.48 25.24-27.31 25.24-26.44 25.24-25.56 25.24-25.29L25.24-25.29 25.38-25.02 25.7-24.88Q27.72-24.88 29.7-25.04 31.68-25.2 33.7-25.2L33.7-25.2 34.02-25.33 36.45-27.77Q36.54-27.81 36.61-27.83 36.67-27.86 36.77-27.9L36.77-27.9Q36.99-27.99 37.71-27.49 38.43-27 39.24-26.35 40.05-25.7 40.79-25.06 41.53-24.43 41.8-24.21L41.8-24.21 41.89-23.98Q41.85-23.8 41.63-23.67 41.4-23.54 41.15-23.42 40.91-23.31 40.7-23.15 40.5-22.99 40.5-22.81L40.5-22.81 40.5-1.8Q40.5-0.32 39.91 0.81 39.33 1.93 38.34 2.7 37.35 3.46 36.07 3.85 34.78 4.23 33.44 4.23L33.44 4.23Q33.21 4.23 33.05 3.82 32.89 3.42 32.78 2.9 32.67 2.38 32.58 1.89 32.49 1.4 32.45 1.21L32.45 1.21Q32.35 0.94 32.02 0.47 31.68 0 31.32-0.47 30.96-0.94 30.67-1.28 30.38-1.62 30.38-1.67L30.38-1.67Q30.38-1.84 30.67-1.89 30.96-1.93 31.05-1.93L31.05-1.93Q31.36-1.93 31.95-1.89 32.53-1.84 33.1-1.89 33.66-1.93 34.09-2.14 34.52-2.34 34.52-2.88L34.52-2.88 34.52-23.85Q34.52-24.3 34.06-24.3L34.06-24.3 25.7-24.3ZM26.28-31.27L26.28-31.27Q26.46-31.63 26.82-31.63L26.82-31.63 33.88-31.63Q34.29-31.63 34.76-32.27 35.23-32.89 35.73-33.68 36.23-34.47 36.67-35.1 37.13-35.73 37.44-35.73L37.44-35.73Q37.8-35.73 38.45-35.39 39.1-35.05 39.82-34.56 40.55-34.06 41.24-33.46 41.94-32.85 42.37-32.35 42.8-31.86 42.84-31.52 42.88-31.18 42.3-31.18L42.3-31.18 26.46-31.18Q26.37-31.18 26.28-31.27ZM1.71-30.91L1.57-31Q1.44-31.23 1.64-31.34 1.84-31.45 1.98-31.5L1.98-31.5 17.32-31.5Q17.77-31.5 18.04-31.23L18.04-31.23Q17.68-31.14 17.28-31.16 16.88-31.18 16.52-31.18L16.52-31.18Q15.62-31.14 14.71-31.12 13.81-31.09 12.91-31.09L12.91-31.09Q10.08-31 7.31-30.96 4.54-30.91 1.71-30.91L1.71-30.91ZM14.31-22.45L14.31-22.45Q14.31-22.9 14.76-22.9L14.76-22.9Q15.52-22.9 16.47-22.61 17.41-22.32 18.22-21.8 19.04-21.29 19.57-20.54 20.11-19.8 20.11-18.9L20.11-18.9Q20.11-16.47 17.68-16.47L17.68-16.47Q16.79-16.47 16.13-17.14 15.48-17.82 15.07-18.77 14.67-19.71 14.49-20.72 14.31-21.73 14.31-22.45ZM11.7-8.55L11.83-8.69Q12.2-8.69 13.16-8.69 14.13-8.69 15.16-8.69 16.2-8.69 17.05-8.66 17.91-8.64 18.13-8.59L18.13-8.59 18.22-8.46Q18.09-8.41 17.19-8.39 16.29-8.37 15.21-8.37 14.13-8.37 13.14-8.39 12.15-8.41 11.83-8.41L11.83-8.41 11.7-8.55ZM70.2-31.68L70.33-31.36 70.61-31.18 78.62-31.18Q79.11-31.18 79.54-31.84 79.97-32.49 80.37-33.3 80.78-34.11 81.18-34.76 81.59-35.41 82.03-35.41L82.03-35.41Q82.48-35.41 83.43-34.88 84.38-34.34 85.3-33.59 86.22-32.85 86.92-32.06 87.61-31.27 87.61-30.82L87.61-30.82Q87.61-30.73 87.48-30.67 87.34-30.6 87.25-30.6L87.25-30.6 47.61-30.6Q47.38-30.6 47.38-30.82L47.38-30.82Q47.38-31.05 47.61-31.05L47.61-31.05 63.77-31.05Q64.13-31.05 64.24-31.54 64.35-32.04 64.33-32.8 64.31-33.57 64.22-34.42 64.13-35.28 64.1-36.05 64.08-36.81 64.19-37.3 64.31-37.8 64.66-37.8L64.66-37.8Q66.24-37.8 67.84-37.73 69.44-37.66 70.97-37.3L70.97-37.3Q71.06-37.26 71.21-37.21 71.37-37.17 71.37-37.03L71.37-37.03Q71.37-36.81 70.99-36.56 70.61-36.31 70.47-36.09L70.47-36.09Q70.33-35.82 70.27-35.23 70.2-34.65 70.2-33.98 70.2-33.3 70.2-32.65 70.2-31.99 70.2-31.68L70.2-31.68ZM64.48-14.98L64.35-15.21Q64.08-15.3 63.63-15.32 63.18-15.34 62.66-15.34 62.14-15.34 61.67-15.32 61.2-15.3 60.88-15.3L60.88-15.3Q60.52-15.3 60.32-15.1 60.12-14.89 60.01-14.6 59.89-14.31 59.76-13.99 59.63-13.68 59.4-13.5L59.4-13.5Q59.27-13.41 58.79-13.16 58.32-12.91 57.78-12.67 57.24-12.42 56.79-12.22 56.34-12.01 56.2-12.01L56.2-12.01Q55.98-12.01 55.64-12.04 55.3-12.06 54.97-12.13 54.63-12.2 54.34-12.35 54.05-12.51 54-12.73L54-12.73Q53.91-13.14 53.89-13.66 53.87-14.17 53.87-14.74 53.87-15.3 53.89-15.84 53.91-16.38 53.91-16.79L53.91-16.79Q53.82-19.48 53.75-22.14 53.69-24.79 53.69-27.49L53.69-27.49Q53.69-27.9 54.13-27.9L54.13-27.9Q54.81-27.9 55.55-27.52 56.3-27.13 57.06-26.71 57.83-26.28 58.63-25.9 59.45-25.52 60.3-25.52L60.3-25.52 74.11-25.52Q74.66-25.52 75.11-25.96 75.56-26.41 75.94-26.93 76.32-27.45 76.61-27.9 76.91-28.35 77.13-28.35L77.13-28.35Q77.27-28.35 77.98-27.81 78.7-27.27 79.58-26.59 80.46-25.92 81.25-25.29 82.03-24.66 82.31-24.48L82.31-24.48 82.39-24.25Q82.35-24.07 82.15-23.94 81.94-23.8 81.72-23.69 81.5-23.58 81.31-23.42 81.13-23.27 81.13-23.09L81.13-23.09 81.13-14.71Q81.13-14.26 80.41-13.93 79.69-13.59 78.77-13.34 77.85-13.09 76.95-12.98 76.05-12.87 75.69-12.87L75.69-12.87Q75.19-12.87 75.11-13.25 75.02-13.63 75.04-14.08 75.06-14.54 75.04-14.92 75.02-15.3 74.7-15.3L74.7-15.3 70.78-15.3Q70.33-15.3 70.33-14.85L70.33-14.85 70.33-0.9Q70.33 0.27 69.61 1.21 68.89 2.16 67.84 2.83 66.78 3.51 65.56 3.87 64.35 4.23 63.36 4.23L63.36 4.23Q63.05 4.23 63 3.92L63 3.92Q62.82 3.28 62.75 2.68 62.69 2.07 62.57 1.48 62.46 0.9 62.23 0.34 62.01-0.22 61.47-0.77L61.47-0.77Q61.29-0.94 60.88-1.35 60.48-1.75 60.48-1.98L60.48-1.98Q60.48-2.16 60.7-2.21 60.93-2.25 61.02-2.25L61.02-2.25 63.36-2.25Q63.59-2.25 63.81-2.5 64.03-2.75 64.13-2.88L64.13-2.88Q64.17-2.92 64.22-3.78 64.26-4.63 64.31-5.87 64.35-7.11 64.39-8.59 64.44-10.08 64.46-11.41 64.48-12.73 64.48-13.72 64.48-14.71 64.48-14.98L64.48-14.98ZM59.72-24.16L59.72-16.34Q59.72-15.88 60.16-15.88L60.16-15.88 74.56-15.88Q75.02-15.88 75.02-16.34L75.02-16.34 75.02-24.16Q75.02-24.61 74.56-24.61L74.56-24.61 60.16-24.61Q59.72-24.61 59.72-24.16L59.72-24.16ZM47.25 0.85L47.12 0.77Q47.48 0.22 47.88-0.16 48.28-0.54 48.73-1.03L48.73-1.03Q50.13-2.48 51.39-3.96L51.39-3.96Q52.34-5.08 53.19-6.25 54.05-7.42 54.86-8.64L54.86-8.64Q55.22-9.18 55.53-9.79 55.84-10.39 56.25-10.89L56.25-10.89Q56.43-11.12 56.88-11.03 57.33-10.93 57.94-10.62 58.55-10.3 59.22-9.88 59.89-9.45 60.48-9 61.06-8.55 61.49-8.14 61.92-7.74 62.01-7.51L62.01-7.51Q62.01-7.42 61.92-7.25L61.92-7.25Q61.38-6.57 60.32-5.76 59.27-4.95 57.91-4.09 56.56-3.24 55.06-2.41 53.55-1.57 52.09-0.9 50.63-0.22 49.37 0.25 48.1 0.72 47.25 0.85L47.25 0.85ZM74.11-9.49L74.25-9.63Q75.78-9.58 77.83-9.16 79.88-8.73 81.72-7.83 83.56-6.93 84.85-5.56 86.13-4.18 86.13-2.25L86.13-2.25Q86.13-0.94 85.37-0.02 84.6 0.9 83.25 0.9L83.25 0.9Q82.75 0.9 82.1 0.43 81.45-0.04 80.73-0.79 80.01-1.53 79.29-2.43 78.57-3.33 77.92-4.21 77.27-5.08 76.72-5.83 76.19-6.57 75.87-6.97L75.87-6.97Q75.51-7.47 74.88-8.21 74.25-8.96 74.11-9.49L74.11-9.49ZM132.88-28.66L132.75-28.44Q131.94-28.17 131-27.58 130.05-27 129.1-26.39 128.16-25.79 127.24-25.33 126.31-24.88 125.5-24.88L125.5-24.88Q124.92-24.88 125.06-25.61 125.19-26.32 125.48-27.2 125.78-28.08 125.91-28.82 126.05-29.56 125.46-29.56L125.46-29.56 100.48-29.56Q100.39-29.56 100.31-29.65L100.31-29.65Q100.31-30.02 100.75-30.02L100.75-30.02 108.77-30.02Q109.22-30.02 109.22-30.46L109.22-30.46 109.22-37.66Q109.22-38.12 109.66-38.12L109.66-38.12Q110.2-38.12 111.02-38.07 111.83-38.02 112.68-37.96 113.53-37.89 114.34-37.78 115.16-37.66 115.65-37.48L115.65-37.48Q115.74-37.44 115.88-37.39 116.01-37.35 116.01-37.26L116.01-37.26Q116.01-37.21 115.88-37.1 115.74-36.99 115.56-36.85 115.38-36.72 115.22-36.59 115.06-36.45 115.02-36.41L115.02-36.41Q114.93-36.31 114.88-35.95 114.84-35.59 114.84-35.21 114.84-34.83 114.91-34.52 114.97-34.2 115.2-34.2L115.2-34.2 120.28-34.2Q120.73-34.2 121.12-34.56 121.5-34.92 121.86-35.41 122.22-35.91 122.51-36.43 122.81-36.95 123.07-37.26L123.07-37.26Q123.25-37.35 123.34-37.35L123.34-37.35Q123.62-37.35 124.22-36.9 124.83-36.45 125.64-35.75 126.45-35.05 127.35-34.2 128.25-33.34 129.06-32.56 129.87-31.77 130.52-31.12 131.18-30.46 131.44-30.2L131.44-30.2Q131.76-29.88 132.21-29.45 132.66-29.02 132.88-28.66L132.88-28.66ZM127.35-32.27L127.48-32.58Q127.48-32.85 127.44-33.07 127.39-33.3 127.03-33.3L127.03-33.3 115.33-33.62Q114.88-33.62 114.88-33.16L114.88-33.16 114.88-30.29Q114.88-30.02 115.36-30.02 115.83-30.02 116.01-30.02L116.01-30.02Q118.17-30.02 120.26-30.17 122.35-30.33 124.52-30.33L124.52-30.33Q124.69-30.33 125.06-30.31 125.41-30.29 125.55-30.42L125.55-30.42 127.35-32.27ZM98.5-31.99L98.5-31.99Q98.73-31.9 98.89-31.57 99.05-31.23 99.14-30.78 99.22-30.33 99.27-29.9 99.31-29.47 99.31-29.25L99.31-29.25Q99.31-27.13 98.78-25.74 98.23-24.34 97.42-23.56 96.61-22.77 95.67-22.54 94.72-22.32 93.92-22.57 93.11-22.81 92.56-23.45 92.03-24.07 92.03-25.06L92.03-25.06Q92.03-25.61 92.25-26.1 92.47-26.59 92.83-27L92.83-27Q93.6-27.95 94.59-28.69 95.58-29.43 96.53-30.2L96.53-30.2Q96.7-30.33 96.97-30.6 97.25-30.87 97.56-31.16 97.88-31.45 98.12-31.7 98.37-31.95 98.5-31.99ZM118.35-28.66L118.66-28.8Q118.98-28.75 119.66-28.44 120.33-28.13 121-27.72 121.68-27.31 122.2-26.84 122.72-26.37 122.72-26.05L122.72-26.05Q122.72-25.79 122.35-25.79L122.35-25.79 103.19-25.79Q103.09-25.79 103-25.88L103-25.88Q103-26.05 103.16-26.14 103.32-26.23 103.45-26.23L103.45-26.23 115.61-26.23 115.92-26.37 118.35-28.66ZM96.8-16.74L96.61-16.92Q96.84-17.59 97.33-18.18 97.83-18.77 98.23-19.35L98.23-19.35Q99.05-20.56 99.83-21.76 100.62-22.95 101.52-24.12L101.52-24.12Q101.61-24.21 101.9-24.59 102.19-24.97 102.28-24.97L102.28-24.97Q102.47-24.97 103.14-24.57 103.81-24.16 104.56-23.65 105.3-23.13 105.89-22.68 106.47-22.23 106.47-22.14L106.47-22.14Q106.47-21.91 106.31-21.87 106.16-21.82 106.02-21.78L106.02-21.78Q104.81-21.33 103.72-20.52 102.64-19.71 101.56-18.88 100.48-18.04 99.34-17.41 98.19-16.79 96.8-16.74L96.8-16.74ZM117.45-23.27L117.31-23.58Q117.31-23.8 117.5-23.8L117.5-23.8Q118.66-23.8 120.19-23.65 121.72-23.49 123.1-22.97 124.47-22.45 125.41-21.49 126.36-20.52 126.36-18.95L126.36-18.95Q126.36-17.01 124.34-17.01L124.34-17.01Q123.7-17.01 123.25-17.26 122.81-17.5 122.47-17.86 122.13-18.22 121.84-18.68 121.55-19.13 121.19-19.48L121.19-19.48 117.45-23.27ZM101.39 3.55L101.39-10.04Q101.3-10.21 101.23-10.35 101.16-10.48 100.94-10.39L100.94-10.39Q100.26-10.13 99.43-9.67 98.59-9.22 97.72-8.8 96.84-8.37 95.96-8.05 95.08-7.74 94.41-7.74L94.41-7.74Q93.96-7.74 94.14-8.01 94.32-8.28 94.45-8.37L94.45-8.37Q95.27-9.04 96.14-9.58 97.02-10.13 97.92-10.66L97.92-10.66Q99.09-11.34 100.01-12.26 100.94-13.18 101.88-14.13L101.88-14.13Q103.55-15.79 104.98-17.5 106.42-19.21 107.55-21.33L107.55-21.33Q107.82-21.82 108.02-22.36 108.22-22.9 108.5-23.4L108.5-23.4Q108.63-23.71 108.9-23.71L108.9-23.71Q109.31-23.71 110.14-23.51 110.97-23.31 111.89-23.04 112.81-22.77 113.65-22.5 114.48-22.23 114.93-22.05L114.93-22.05Q115.25-21.96 115.25-21.73L115.25-21.73Q115.25-21.6 115.06-21.42L115.06-21.42Q114.66-21.02 114.14-20.75 113.63-20.47 113.17-20.11L113.17-20.11Q112.59-19.62 112.19-19.06 111.78-18.5 111.28-17.95L111.28-17.95Q110.34-16.88 109.31-15.91 108.27-14.94 107.23-13.95L107.23-13.95 107.1-13.63Q107.19-13.23 107.57-13.07 107.95-12.91 108.31-12.91L108.31-12.91 116.69-12.91Q117.18-12.91 117.72-13.43 118.26-13.95 118.26-14.45L118.26-14.45Q118.26-14.63 117.72-15.21 117.18-15.79 116.5-16.54 115.83-17.28 115.25-18.11 114.66-18.95 114.57-19.66L114.57-19.66 114.75-19.8Q115.11-19.71 115.69-19.39 116.28-19.08 116.91-18.68 117.54-18.27 118.17-17.86 118.8-17.46 119.25-17.28L119.25-17.28Q122.49-15.84 125.84-14.96 129.19-14.08 132.7-13.54L132.7-13.54 132.88-13.37Q132.8-12.87 132.46-12.35 132.12-11.83 131.69-11.34 131.26-10.84 130.84-10.35 130.41-9.86 130.23-9.4L130.23-9.4Q130.14-9.18 130-8.59 129.87-8.01 129.74-7.92L129.74-7.92Q129.64-7.88 129.58-7.85 129.51-7.83 129.42-7.79L129.42-7.79Q128.61-7.92 127.91-8.3 127.22-8.69 126.54-9.11 125.87-9.54 125.17-9.95 124.47-10.35 123.7-10.53L123.7-10.53 123.44-10.35 123.3-10.04 123.3 2.11Q123.3 2.52 122.72 2.75 122.13 2.97 121.36 3.1 120.6 3.24 119.86 3.28 119.11 3.33 118.84 3.33L118.84 3.33Q118.53 3.33 118.44 3.33 118.35 3.33 118.17 3.06L118.17 3.06Q118.13 2.97 118.08 2.68 118.03 2.38 117.99 2.02 117.94 1.67 117.92 1.35 117.9 1.03 117.9 0.9L117.9 0.9 117.9-11.83Q117.9-12.29 117.45-12.29L117.45-12.29 107.23-12.29Q106.78-12.29 106.78-11.83L106.78-11.83 106.78 0Q106.78 0.45 107.23 0.45L107.23 0.45Q107.55 0.45 108.38 0.45 109.22 0.45 110.27 0.43 111.33 0.4 112.48 0.4 113.63 0.4 114.61 0.4 115.61 0.4 116.3 0.45 117 0.49 117.13 0.54L117.13 0.54Q117.05 0.77 116.86 0.85 116.69 0.94 116.5 1.03L116.5 1.03 107.33 1.03Q107.1 1.03 106.99 1.33 106.88 1.62 106.78 1.8L106.78 1.8Q106.16 3.38 104.96 3.69 103.77 4 102.24 4L102.24 4Q101.97 4 101.68 3.98 101.39 3.96 101.39 3.55L101.39 3.55ZM107.69-8.28L107.86-8.41 116.86-8.41 117-8.28 116.86-8.1 107.86-8.1 107.69-8.28ZM108.18-3.6L107.86-3.73 107.78-3.87Q107.82-3.92 107.91-3.92L107.91-3.92Q108.18-3.92 108.92-3.92 109.66-3.92 110.66-3.94 111.64-3.96 112.7-3.96 113.76-3.96 114.68-3.94 115.61-3.92 116.21-3.92 116.82-3.92 116.91-3.87L116.91-3.87 116.82-3.73 116.5-3.6 108.18-3.6ZM169.2-24.88L169.2-24.88Q169.25-25.06 169.38-25.47 169.51-25.88 169.51-25.96L169.51-25.96 169.51-33.16Q169.51-33.62 169.06-33.62L169.06-33.62 165.15-33.62Q164.7-33.62 164.7-33.16L164.7-33.16 164.7-25.79Q164.7-25.33 165.28-25.31 165.87-25.29 166.59-25.33 167.31-25.38 167.89-25.36 168.48-25.33 168.48-24.88L168.48-24.88Q168.48-24.75 168.3-24.75L168.3-24.75Q168.12-24.75 167.65-24.77 167.18-24.79 166.68-24.79 166.19-24.79 165.76-24.77 165.33-24.75 165.19-24.7L165.19-24.7Q164.97-24.61 164.61-24.23 164.25-23.85 164.03-23.67L164.03-23.67Q163.13-22.9 162.31-22.54 161.5-22.18 160.34-22.18L160.34-22.18Q159.88-22.18 159.88-22.63L159.88-22.63Q159.88-25.96 159.75-29.27 159.62-32.58 159.62-35.91L159.62-35.91Q159.62-36.05 159.7-36.2 159.79-36.36 159.97-36.36L159.97-36.36Q160.11-36.36 160.38-36.27 160.65-36.18 160.97-36.05 161.28-35.91 161.57-35.8 161.87-35.68 162-35.64L162-35.64Q162.72-35.37 163.62-35.1 164.52-34.83 165.47-34.65 166.41-34.47 167.33-34.42 168.25-34.38 169.02-34.6L169.02-34.6Q169.2-34.74 169.51-35.14 169.83-35.55 170.19-35.95 170.55-36.36 170.89-36.7 171.22-37.03 171.36-37.03L171.36-37.03Q171.5-37.03 172.17-36.54 172.84-36.05 173.63-35.44 174.42-34.83 175.09-34.24 175.77-33.66 175.86-33.52L175.86-33.52 176-33.25Q176-33.03 175.79-32.92 175.59-32.8 175.37-32.69 175.14-32.58 174.94-32.45 174.74-32.31 174.74-32.09L174.74-32.09 174.74-23.71Q174.74-23.36 174.1-23.11 173.47-22.86 172.66-22.7 171.85-22.54 171.09-22.48 170.32-22.41 170.06-22.41L170.06-22.41Q169.83-22.41 169.72-22.72 169.6-23.04 169.54-23.47 169.47-23.89 169.4-24.3 169.34-24.7 169.2-24.88ZM149.4-0.09L149.4-0.09Q149.4 0.04 149.02 0.11 148.63 0.18 148.19 0.18 147.74 0.18 147.28 0.16 146.84 0.14 146.7 0.14L146.7 0.14Q146.56 0.14 146.54 0.29 146.52 0.45 146.47 0.54L146.47 0.54Q146.34 1.08 146.29 1.84 146.25 2.61 145.8 3.01L145.8 3.01Q145.03 3.69 143.93 3.85 142.83 4 141.88 4L141.88 4Q141.44 4 141.44 3.55L141.44 3.55 141.44-8.55Q141.44-9 141.07-9 140.72-9 140.24-8.82 139.77-8.64 139.3-8.44 138.82-8.23 138.65-8.23L138.65-8.23Q138.42-8.23 138.42-8.37L138.42-8.37Q138.42-8.5 138.62-8.69 138.82-8.87 138.91-8.96L138.91-8.96Q139.91-9.76 141.28-10.8 142.65-11.83 144-12.94 145.35-14.04 146.54-15.16 147.74-16.29 148.41-17.32L148.41-17.32Q148.63-17.64 148.77-18 148.91-18.36 149.04-18.72L149.04-18.72Q149.58-19.98 149.96-21.04 150.34-22.09 150.34-23.49L150.34-23.49Q150.34-23.94 150.3-24.19 150.25-24.43 150.03-24.79L150.03-24.79Q150.03-25.11 150.16-25.29 150.3-25.47 150.3-25.7L150.3-25.7 150.3-33.16Q150.3-33.62 149.85-33.62L149.85-33.62 146.56-33.62Q146.12-33.62 146.12-33.16L146.12-33.16 146.12-25.65Q146.12-25.24 146.63-25.18 147.15-25.11 147.76-25.18 148.37-25.24 148.88-25.24 149.4-25.24 149.4-24.97L149.4-24.97Q149.4-24.79 149-24.75 148.59-24.7 148.07-24.7 147.56-24.7 147.06-24.73 146.56-24.75 146.38-24.75L146.38-24.75Q146.03-24.21 145.73-23.38 145.44-22.54 144.9-22.18L144.9-22.18Q144.27-21.78 143.24-21.69 142.2-21.6 141.44-21.6L141.44-21.6Q140.99-21.6 140.99-22.05L140.99-22.05Q140.99-25.61 140.85-29.14 140.72-32.67 140.72-36.23L140.72-36.23Q140.72-36.63 141.16-36.63L141.16-36.63Q141.62-36.63 142.29-36.41 142.97-36.18 143.71-35.89 144.45-35.59 145.13-35.28 145.8-34.96 146.29-34.83L146.29-34.83Q147.15-34.56 147.98-34.52 148.81-34.47 149.72-34.52L149.72-34.52 152.01-36.81 152.28-36.9 152.55-36.81Q153.5-35.91 154.55-35.12 155.61-34.34 156.65-33.48L156.65-33.48Q156.65-33.3 156.47-33.14 156.28-32.98 156.08-32.8 155.88-32.63 155.72-32.47 155.56-32.31 155.56-32.13L155.56-32.13 155.56-24.3Q155.56-24.07 155.32-23.87 155.07-23.67 154.75-23.47 154.44-23.27 154.19-23.09 153.94-22.9 153.94-22.72L153.94-22.72Q153.94-22.45 154.49-22.23 155.03-22 155.7-21.8 156.38-21.6 156.91-21.4 157.45-21.2 157.45-20.97L157.45-20.97Q157.45-20.84 157.21-20.72 156.96-20.61 156.67-20.41 156.38-20.2 156.13-19.89 155.88-19.57 155.88-19.04L155.88-19.04Q155.88-18.59 156.28-18.59L156.28-18.59 170.1-18.59Q170.64-18.59 170.95-19.06 171.27-19.53 171.59-20.11 171.9-20.7 172.26-21.17 172.62-21.64 173.25-21.64L173.25-21.64Q173.61-21.64 173.97-21.51L173.97-21.51Q174.15-21.42 174.69-21.02 175.23-20.61 175.84-20.09 176.44-19.57 177.01-19.1 177.57-18.63 177.75-18.45L177.75-18.45 177.88-18.13Q177.88-17.86 177.66-17.86L177.66-17.86 154.8-17.86Q154.4-17.86 153.85-17.37 153.31-16.88 152.73-16.22 152.15-15.57 151.58-14.96 151.02-14.35 150.62-14.08L150.62-14.08Q149.76-13.54 148.95-13 148.14-12.46 147.28-11.88L147.28-11.88Q146.93-11.61 146.54-11.38 146.16-11.16 145.8-10.84L145.8-10.84Q145.71-10.48 145.84-10.19 145.98-9.9 146.38-9.9L146.38-9.9 149.81-9.9 150.12-10.04Q150.25-10.17 150.62-10.53 150.97-10.89 151.36-11.29 151.74-11.7 152.1-11.99 152.46-12.29 152.59-12.29L152.59-12.29Q152.64-12.29 153.27-11.81 153.9-11.34 154.66-10.78 155.43-10.21 156.06-9.7 156.69-9.18 156.78-9.09L156.78-9.09Q156.82-9 156.85-8.98 156.87-8.96 156.91-8.87L156.91-8.87 156.78-8.59Q156.6-8.46 156.22-8.1 155.84-7.74 155.84-7.51L155.84-7.51 155.84 2.11Q155.84 2.48 155.27 2.7 154.71 2.92 153.99 3.08 153.27 3.24 152.57 3.31 151.88 3.38 151.6 3.38L151.6 3.38Q151.34 3.38 151.16 3.35 150.97 3.33 150.84 3.06L150.84 3.06Q150.71 2.79 150.64 1.93 150.57 1.08 150.55-0.04 150.53-1.17 150.55-2.45 150.57-3.73 150.62-4.93 150.66-6.12 150.68-7.09 150.71-8.05 150.71-8.55L150.71-8.55Q150.71-9 150.25-9L150.25-9 146.84-9Q146.38-9 146.38-8.55L146.38-8.55 146.38-0.81Q146.38-0.4 146.79-0.36 147.19-0.32 147.71-0.38 148.23-0.45 148.72-0.45 149.22-0.45 149.4-0.09ZM136.66-17.86L136.57-18 136.66-18.18 136.98-18.31 147.15-18.31 147.28-18.18 147.15-18Q144.59-18 142.06-17.86 139.54-17.73 136.98-17.68L136.98-17.68 136.66-17.82 136.66-17.86ZM176.44-7.69L176.26-7.47Q176.13-7.47 175.79-7.58 175.45-7.69 175.07-7.76 174.69-7.83 174.42-7.81 174.15-7.79 174.15-7.51L174.15-7.51 174.15 2.7Q174.15 2.92 173.66 3.08 173.16 3.24 172.51 3.35 171.85 3.46 171.25 3.53 170.64 3.6 170.46 3.6L170.46 3.6Q170.06 3.6 169.72 3.62 169.38 3.65 169.16 3.19L169.16 3.19Q169.02 2.92 168.95 2.07 168.88 1.21 168.88 0.07 168.88-1.08 168.88-2.38 168.88-3.69 168.93-4.91 168.97-6.12 169-7.09 169.02-8.05 169.02-8.55L169.02-8.55Q169.02-9 168.57-9L168.57-9 164.84-9Q164.38-9 164.38-8.55L164.38-8.55 164.38-0.81Q164.38-0.54 164.56-0.4L164.56-0.4Q164.79-0.27 165.28-0.29 165.78-0.32 166.3-0.34 166.81-0.36 167.24-0.29 167.67-0.22 167.81 0.04L167.81 0.04Q167.72 0.14 167.35 0.16 167 0.18 166.57 0.18 166.14 0.18 165.74 0.16 165.33 0.14 165.19 0.14L165.19 0.14 164.88 0.27Q164.56 0.58 164.38 0.9L164.38 0.9Q163.8 1.84 163.44 2.38 163.08 2.92 162.63 3.19 162.18 3.46 161.53 3.53 160.88 3.6 159.75 3.6L159.75 3.6Q159.39 3.6 159.3 3.15L159.3 3.15Q159.07 2.21 159.16 1.15 159.25 0.09 159.21-0.9L159.21-0.9Q159.12-3.6 159.05-6.25 158.99-8.91 158.99-11.61L158.99-11.61Q158.99-12.01 159.44-12.01L159.44-12.01Q159.97-12.01 160.6-11.81 161.24-11.61 161.91-11.32 162.59-11.03 163.22-10.71 163.84-10.39 164.34-10.21L164.34-10.21Q165.19-9.9 165.98-9.88 166.77-9.86 167.67-9.86L167.67-9.86Q167.89-9.86 168.1-9.95 168.3-10.04 168.3-10.35L168.3-10.35Q168.3-11.07 167.4-11.74 166.5-12.42 165.42-13.09 164.34-13.77 163.44-14.49 162.54-15.21 162.54-16.02L162.54-16.02Q162.54-16.16 162.7-16.22 162.85-16.29 162.94-16.29L162.94-16.29Q164.79-16.29 166.52-15.79 168.25-15.3 170.01-14.94L170.01-14.94Q171.59-14.58 173.12-14.26 174.64-13.95 176.22-13.63L176.22-13.63Q176.35-13.59 176.67-13.54 176.99-13.5 177.32-13.41 177.66-13.32 177.93-13.18 178.2-13.05 178.2-12.87L178.2-12.87Q178.2-12.24 177.95-11.59 177.7-10.93 177.41-10.28 177.12-9.63 176.83-8.98 176.53-8.32 176.44-7.69L176.44-7.69Z" transform="translate(-1.5187878608703613, 38.119998931884766)"></path></g> <!----> <!----> <!----> <!----> <!----> <!----> <!----></g></g> <g data-gra="path-slogan" fill-rule="" class="tp-slogan iconsvg-slogansvg" fill="#333" transform="translate(44.79560470581055,48.349998474121094)"><!----> <!----> <g transform="scale(1, 1)"><g transform="scale(1)"><path d="M2.30-8.58L6.61-1.64L6.61-8.58L7.73-8.58L7.73 0L6.42 0L2.06-6.94L2.02-6.94L2.02 0L0.89 0L0.89-8.58L2.30-8.58ZM15.19 0L14.34-2.48L10.88-2.48L9.98 0L8.81 0L12.05-8.58L13.36-8.58L16.45 0L15.19 0ZM12.61-7.31L11.25-3.52L13.92-3.52L12.66-7.31L12.61-7.31ZM18.89-8.58L23.20-1.64L23.20-8.58L24.33-8.58L24.33 0L23.02 0L18.66-6.94L18.61-6.94L18.61 0L17.48 0L17.48-8.58L18.89-8.58ZM25.41-1.92L25.41-2.77L26.48-2.77L26.48-2.16Q26.48-0.75 27.80-0.75L27.80-0.75Q29.16-0.75 29.16-2.25L29.16-2.25L29.16-8.58L30.33-8.58L30.33-2.30Q30.28 0.09 27.84 0.14L27.84 0.14Q25.55 0.09 25.41-1.92L25.41-1.92ZM32.30-8.58L33.47-8.58L33.47 0L32.30 0L32.30-8.58ZM36.84-8.58L41.16-1.64L41.16-8.58L42.28-8.58L42.28 0L40.97 0L36.61-6.94L36.56-6.94L36.56 0L35.44 0L35.44-8.58L36.84-8.58ZM50.48-3.61L47.86-3.61L47.86-4.59L51.61-4.59L51.61 0L50.86 0L50.58-1.08Q49.59 0.09 47.77 0.14L47.77 0.14Q46.03 0.14 45.09-0.75L45.09-0.75Q43.69-2.06 43.73-4.36L43.73-4.36Q44.06-8.63 47.81-8.81L47.81-8.81Q51-8.63 51.47-6L51.47-6L50.34-6Q49.88-7.78 47.77-7.83L47.77-7.83Q45.09-7.64 44.95-4.31L44.95-4.31Q44.95-0.75 47.81-0.75L47.81-0.75Q48.84-0.75 49.59-1.31L49.59-1.31Q50.53-2.06 50.48-3.61L50.48-3.61ZM60.84-3.70L58.03-3.70L58.03 0L56.86 0L56.86-8.58L60.84-8.58Q63.70-8.58 63.70-6.28L63.70-6.28Q63.70-4.88 62.48-4.22L62.48-4.22Q63.52-3.94 63.52-2.58L63.52-2.58L63.61-1.03Q63.56-0.38 64.03-0.19L64.03-0.19L64.03 0L62.58 0Q62.44-0.61 62.39-2.16L62.39-2.16Q62.44-3.70 60.84-3.70L60.84-3.70ZM60.94-7.64L58.03-7.64L58.03-4.69L60.75-4.69Q62.48-4.69 62.48-6.19L62.48-6.19Q62.48-7.64 60.94-7.64L60.94-7.64ZM71.02-3.19L71.02-8.58L72.19-8.58L72.19-3.05Q72.05 0.05 68.67 0.14L68.67 0.14Q65.53 0.05 65.39-2.86L65.39-2.86L65.39-8.58L66.56-8.58L66.56-3.19Q66.61-0.84 68.72-0.80L68.72-0.80Q71.02-0.84 71.02-3.19L71.02-3.19ZM74.16-8.58L75.33-8.58L75.33 0L74.16 0L74.16-8.58ZM82.31-1.08L81.42-1.78L82.03-2.48L83.11-1.64Q84.09-2.63 84.09-4.27L84.09-4.27Q83.91-7.64 81.09-7.83L81.09-7.83Q78.23-7.69 78.09-4.27L78.09-4.27Q78.23-0.94 81.09-0.80L81.09-0.80Q81.80-0.80 82.31-1.08L82.31-1.08ZM84.05-0.94L85.17-0.05L84.61 0.56L83.30-0.33Q82.45 0.14 81.09 0.14L81.09 0.14Q77.16 0 76.88-4.27L76.88-4.27Q77.11-8.72 81.09-8.81L81.09-8.81Q84.98-8.67 85.27-4.27L85.27-4.27Q85.22-2.20 84.05-0.94L84.05-0.94ZM86.81-8.58L87.98-8.58L87.98 0L86.81 0L86.81-8.58Z" transform="translate(-0.890625, 8.8125)"></path></g></g></g></g></g><defs v-gra="od"></defs></svg>