<svg data-v-0dd9719b="" version="1.0" xmlns="http://www.w3.org/2000/svg" xmlns:xlink="http://www.w3.org/1999/xlink" width="100%" height="100%" viewBox="0 0 340.000000 250.000000" preserveAspectRatio="xMidYMid meet" color-interpolation-filters="sRGB" style="margin: auto;"> <rect data-v-0dd9719b="" x="0" y="0" width="100%" height="100%" fill="#fff" fill-opacity="1" class="background"></rect> <rect data-v-0dd9719b="" x="0" y="0" width="100%" height="100%" fill="url(#watermark)" fill-opacity="1" class="watermarklayer"></rect> <g data-v-0dd9719b="" fill="#2052a3" class="icon-text-wrapper icon-svg-group iconsvg" transform="translate(48.958343505859375,95.00569725036621)"><g class="iconsvg-imagesvg" transform="translate(0,0)"><g><rect fill="#2052a3" fill-opacity="0" stroke-width="2" x="0" y="0" width="60" height="59.988602165588546" class="image-rect"></rect> <svg x="0" y="0" width="60" height="59.988602165588546" filtersec="colorsb6716715574" class="image-svg-svg primary" style="overflow: visible;"><svg xmlns="http://www.w3.org/2000/svg" viewBox="0 -0.0034076690208166838 35.08000183105469 35.07341003417969"><g><g><path d="M0 17.53a17.54 17.54 0 0 0 35.08 0z" fill="#e5004f" opacity=".9" style="isolation:isolate"></path><path d="M4.89 29.68a17.54 17.54 0 0 1 24.8-24.8z" fill="#2052a3" opacity=".9" style="isolation:isolate"></path></g></g></svg></svg> <!----></g></g> <g transform="translate(67,1.2580509185791016)"><g data-gra="path-name" fill-rule="" class="tp-name iconsvg-namesvg" transform="translate(0,0)"><g transform="scale(1)"><g><path d="M39.64-27.33L39.64-27.33 12.57-27.33Q11.47-27.33 11.47-26.24L11.47-26.24 11.47-20.26Q11.47-6.11 7.47 1.49L7.47 1.49Q6.64 2.86 5.76 3.05 4.88 3.25 3.65 2.29L3.65 2.29Q1.58 0.57 3.12-1.98L3.12-1.98Q6.2-8.09 6.2-20.26L6.2-20.26 6.2-29.53Q6.2-30.85 7.01-31.64 7.82-32.43 9.14-32.43L9.14-32.43 21.14-32.43 21.14-35.33Q21.14-38.06 23.95-38.06L23.95-38.06Q26.67-38.06 26.67-35.33L26.67-35.33 26.67-32.43 39.64-32.43Q42.23-32.43 42.23-29.88 42.23-27.33 39.64-27.33ZM53.88-23.91L53.88-23.91Q52.91-18.06 51.68-14.77L51.68-14.77Q50.84-12.83 48.65-13.71L48.65-13.71Q46.23-14.68 47.2-16.92L47.2-16.92Q48.52-20.3 49.22-24.57L49.22-24.57Q49.61-27.16 52.08-26.54L52.08-26.54Q54.18-26.02 53.88-23.91ZM55.42-23.12L55.42-23.12 55.42-34.76Q55.42-37.35 58.05-37.35L58.05-37.35Q60.64-37.35 60.64-34.76L60.64-34.76 60.64-24.87 62.49-25.66Q63.19-25.97 63.83-25.71 64.47-25.44 64.73-24.74L64.73-24.74Q66.45-20.52 67.32-16.57L67.32-16.57Q67.5-15.6 67.15-15.07 66.8-14.55 65.83-14.11L65.83-14.11Q64.47-13.45 63.7-13.69 62.93-13.93 62.67-15.34L62.67-15.34Q62.09-18.24 60.64-22.68L60.64-22.68Q60.6-15.12 59.19-9.16 57.79-3.21 53.66 1.45L53.66 1.45Q51.15 3.91 49.22 1.8 47.29-0.31 49.88-2.9L49.88-2.9Q53.22-6.9 54.32-11.87 55.42-16.83 55.42-23.12ZM85.83-34.89L85.83-34.89 85.83 0.75Q85.83 3.43 83.14 3.43L83.14 3.43Q80.51 3.43 80.51 0.75L80.51 0.75 80.51-15.42 78.4-14.28Q77.52-13.84 76.9-14.02 76.29-14.19 76.11-14.94L76.11-14.94Q75.19-18.46 72.95-23.2L72.95-23.2 72.95-1.63Q72.95 0.97 70.4 0.97L70.4 0.97Q67.76 0.97 67.76-1.63L67.76-1.63 67.76-33.79Q67.76-36.34 70.4-36.34L70.4-36.34Q72.95-36.34 72.95-33.79L72.95-33.79 72.95-25 74.71-25.88Q76.25-26.63 76.99-25.14L76.99-25.14Q79.32-20.61 80.51-16.79L80.51-16.79 80.51-34.89Q80.51-37.53 83.14-37.53L83.14-37.53Q85.83-37.53 85.83-34.89ZM99.18-20.83L99.18-20.83 125.11-20.83Q119.58-23.38 111.62-26.19L111.62-26.19Q108.19-22.37 99.18-20.83ZM102.61-5.05L102.61-5.05 110.61-5.05 110.61-8.13Q110.61-9.23 109.51-9.23L109.51-9.23 102.61-9.23Q101.51-9.23 101.51-8.13L101.51-8.13 101.51-6.11Q101.51-5.05 102.61-5.05ZM121.73-1.89L121.73-16.08 94.83-16.08Q92.42-16.08 92.42-18.46 92.42-20.83 94.83-20.83L94.83-20.83 96.33-20.83Q95.89-21.93 95.23-22.98L95.23-22.98Q94.22-24.61 97.21-25L97.21-25Q105.16-26.19 107.71-29.66L107.71-29.66 96.94-29.66Q94.61-29.66 94.61-31.99L94.61-31.99Q94.61-34.28 96.94-34.28L96.94-34.28 109.38-34.28Q109.47-34.63 109.56-35.51L109.56-35.51Q109.78-38.14 112.41-38.14L112.41-38.14Q115.22-38.14 114.96-35.29L114.96-35.29Q114.96-35.16 114.92-34.8 114.87-34.45 114.83-34.28L114.83-34.28 128.06-34.28Q130.39-34.28 130.39-31.99L130.39-31.99Q130.39-29.66 128.06-29.66L128.06-29.66 115.22-29.66Q121.55-27.55 127.05-25.36L127.05-25.36Q128.19-24.87 128.3-23.86 128.41-22.85 127.27-21.71L127.27-21.71 126.39-20.83 130.39-20.83Q132.76-20.83 132.76-18.46 132.76-16.08 130.39-16.08L130.39-16.08 127.27-16.08 127.27-1.76Q127.27 0.31 126.65 1.43 126.04 2.55 124.5 3.12L124.5 3.12Q122.7 3.78 118.96 3.87L118.96 3.87Q115.8 3.91 115.05 1.54L115.05 1.54Q114.48-0.04 113.99-0.88L113.99-0.88 99.45-0.88Q98.13-0.88 97.32-1.69 96.5-2.5 96.5-3.82L96.5-3.82 96.5-10.46Q96.5-11.78 97.32-12.57 98.13-13.36 99.45-13.36L99.45-13.36 112.72-13.36Q114.04-13.36 114.85-12.57 115.66-11.78 115.66-10.46L115.66-10.46 115.66-1.01Q117.86-0.97 120.54-0.97L120.54-0.97Q121.2-1.05 121.46-1.23 121.73-1.41 121.73-1.89L121.73-1.89ZM172.35-27.95L172.35-27.95Q172.18-27.64 169.98-24.43L169.98-24.43Q168.88-22.98 166.86-23.86L166.86-23.86Q164.18-25.05 165.59-27.16L165.59-27.16Q167.21-29.88 168.84-33.31L168.84-33.31Q170.07-36.17 172.92-35.07L172.92-35.07Q176.09-33.84 174.2-30.81L174.2-30.81Q173.85-30.23 173.17-29.2 172.49-28.17 172.35-27.95ZM145.81-34.19L145.81-34.19Q148.14-30.63 149.5-28.04L149.5-28.04Q150.42-25.71 148.01-24.61L148.01-24.61Q146.56-23.95 145.66-24.21 144.76-24.48 144.23-25.93L144.23-25.93Q143.09-28.43 141.37-31.16L141.37-31.16Q140.49-32.39 140.78-33.44 141.06-34.5 142.43-35.07L142.43-35.07Q144.54-35.95 145.81-34.19ZM160.36-35.24L160.36-21.36 174.77-21.36Q177.5-21.36 177.5-18.68L177.5-18.68Q177.5-15.91 174.77-15.91L174.77-15.91 164.09-15.91Q168.79-9.18 175.74-4.26L175.74-4.26Q177.32-3.25 177.52-2.26 177.71-1.27 176.53 0.18L176.53 0.18Q175.52 1.32 174.57 1.41 173.63 1.49 172.4 0.57L172.4 0.57Q165.54-4.79 160.36-12.52L160.36-12.52 160.36 1.14Q160.36 3.96 157.5 3.96 154.64 3.96 154.64 1.14L154.64 1.14 154.64-12.35Q149.46-4.39 142.56 0.88L142.56 0.88Q141.37 1.71 140.47 1.63 139.57 1.54 138.6 0.44L138.6 0.44Q137.42-0.92 137.61-1.91 137.81-2.9 139.35-3.87L139.35-3.87Q142.69-6.2 145.77-9.36 148.84-12.52 151.04-15.91L151.04-15.91 140.27-15.91Q137.55-15.91 137.55-18.68L137.55-18.68Q137.55-21.36 140.27-21.36L140.27-21.36 154.64-21.36 154.64-35.24Q154.64-38.06 157.5-38.06 160.36-38.06 160.36-35.24L160.36-35.24Z" transform="translate(-2.4630470275878906, 38.13999938964844)"></path></g> <!----> <!----> <!----> <!----> <!----> <!----> <!----></g></g> <g data-gra="path-slogan" fill-rule="" class="tp-slogan iconsvg-slogansvg" fill="#2052a3" transform="translate(5,48.10000228881836)"><rect x="0" height="1" y="4.185000896453857" width="26.876102447509766"></rect> <rect height="1" y="4.185000896453857" width="26.876102447509766" x="138.20721054077148"></rect> <g transform="translate(29.876102447509766,0)"><g transform="scale(1)"><path d="M7.31-3.61L4.69-3.61L4.69-4.59L8.44-4.59L8.44 0L7.69 0L7.41-1.08Q6.42 0.09 4.59 0.14L4.59 0.14Q2.86 0.14 1.92-0.75L1.92-0.75Q0.52-2.06 0.56-4.36L0.56-4.36Q0.89-8.63 4.64-8.81L4.64-8.81Q7.83-8.63 8.30-6L8.30-6L7.17-6Q6.70-7.78 4.59-7.83L4.59-7.83Q1.92-7.64 1.78-4.31L1.78-4.31Q1.78-0.75 4.64-0.75L4.64-0.75Q5.67-0.75 6.42-1.31L6.42-1.31Q7.36-2.06 7.31-3.61L7.31-3.61ZM15.89-3.19L15.89-8.58L17.06-8.58L17.06-3.05Q16.92 0.05 13.55 0.14L13.55 0.14Q10.41 0.05 10.27-2.86L10.27-2.86L10.27-8.58L11.44-8.58L11.44-3.19Q11.48-0.84 13.59-0.80L13.59-0.80Q15.89-0.84 15.89-3.19L15.89-3.19ZM24.52 0L23.67-2.48L20.20-2.48L19.31 0L18.14 0L21.38-8.58L22.69-8.58L25.78 0L24.52 0ZM21.94-7.31L20.58-3.52L23.25-3.52L21.98-7.31L21.94-7.31ZM28.22-8.58L32.53-1.64L32.53-8.58L33.66-8.58L33.66 0L32.34 0L27.98-6.94L27.94-6.94L27.94 0L26.81 0L26.81-8.58L28.22-8.58ZM41.86-3.61L39.23-3.61L39.23-4.59L42.98-4.59L42.98 0L42.23 0L41.95-1.08Q40.97 0.09 39.14 0.14L39.14 0.14Q37.41 0.14 36.47-0.75L36.47-0.75Q35.06-2.06 35.11-4.36L35.11-4.36Q35.44-8.63 39.19-8.81L39.19-8.81Q42.38-8.63 42.84-6L42.84-6L41.72-6Q41.25-7.78 39.14-7.83L39.14-7.83Q36.47-7.64 36.33-4.31L36.33-4.31Q36.33-0.75 39.19-0.75L39.19-0.75Q40.22-0.75 40.97-1.31L40.97-1.31Q41.91-2.06 41.86-3.61L41.86-3.61ZM45.61-1.03L50.91-1.03L50.91 0L44.16 0L44.16-0.94L49.41-7.59L44.53-7.59L44.53-8.58L50.91-8.58L50.91-7.59L45.61-1.03ZM53.20-5.06L57.70-5.06L57.70-8.58L58.88-8.58L58.88 0L57.70 0L57.70-3.98L53.20-3.98L53.20 0L52.03 0L52.03-8.58L53.20-8.58L53.20-5.06ZM67.45-4.27L67.45-4.27Q67.27-7.64 64.45-7.83L64.45-7.83Q61.59-7.69 61.45-4.27L61.45-4.27Q61.59-0.94 64.45-0.80L64.45-0.80Q67.27-0.98 67.45-4.27ZM68.63-4.27L68.63-4.27Q68.34 0 64.45 0.14L64.45 0.14Q60.52 0 60.23-4.27L60.23-4.27Q60.47-8.72 64.45-8.81L64.45-8.81Q68.34-8.67 68.63-4.27ZM75.66-3.19L75.66-8.58L76.83-8.58L76.83-3.05Q76.69 0.05 73.31 0.14L73.31 0.14Q70.17 0.05 70.03-2.86L70.03-2.86L70.03-8.58L71.20-8.58L71.20-3.19Q71.25-0.84 73.36-0.80L73.36-0.80Q75.66-0.84 75.66-3.19L75.66-3.19ZM86.95-1.08L86.06-1.78L86.67-2.48L87.75-1.64Q88.73-2.63 88.73-4.27L88.73-4.27Q88.55-7.64 85.73-7.83L85.73-7.83Q82.88-7.69 82.73-4.27L82.73-4.27Q82.88-0.94 85.73-0.80L85.73-0.80Q86.44-0.80 86.95-1.08L86.95-1.08ZM88.69-0.94L89.81-0.05L89.25 0.56L87.94-0.33Q87.09 0.14 85.73 0.14L85.73 0.14Q81.80 0 81.52-4.27L81.52-4.27Q81.75-8.72 85.73-8.81L85.73-8.81Q89.63-8.67 89.91-4.27L89.91-4.27Q89.86-2.20 88.69-0.94L88.69-0.94ZM91.45-8.58L92.63-8.58L92.63 0L91.45 0L91.45-8.58ZM102.84-8.58L102.84 0L101.72 0L101.72-5.06Q101.72-5.77 101.72-7.22L101.72-7.22L99.28 0L98.11 0L95.72-7.22L95.67-7.22Q95.67-6.70 95.72-5.67L95.72-5.67Q95.72-5.16 95.72-5.06L95.72-5.06L95.72 0L94.55 0L94.55-8.58L96.23-8.58L98.72-1.31L101.16-8.58L102.84-8.58ZM104.72-8.58L105.89-8.58L105.89 0L104.72 0L104.72-8.58Z" transform="translate(-0.5609879032258065, 8.8125)"></path></g></g></g></g></g><defs v-gra="od"></defs></svg>